<?xml version="1.0" encoding="UTF-8"?>
<svg id="Isolation_Mode" data-name="Isolation Mode" xmlns="http://www.w3.org/2000/svg" viewBox="0 0 735.13 200">
  <defs>
    <style>
      .cls-1 {
        fill: #0071bc;
      }

      .cls-2 {
        fill: #fff;
      }

      .cls-3 {
        fill: red;
      }
    </style>
  </defs>
  <g id="Layer_1" data-name="Layer 1">
    <g>
      <g>
        <rect class="cls-2" x=".5" y=".5" width="267" height="68"/>
        <path d="m267,1v67H1V1h266m1-1H0v69h268V0h0Z"/>
      </g>
      <g>
        <path d="m50.18,54.6l-.53-3.43c-1.6,2.78-4.55,3.96-7.57,3.96-5.74,0-8.34-3.25-8.34-8.69,0-6.27,4.91-9.17,11.12-9.17,1.83,0,3.49.3,4.61.47v-3.19c0-3.55-1.89-5.03-5.2-5.03-1.95,0-4.91.41-6.74,1.54l-1.12-4.32c2.66-1.24,5.74-1.54,8.57-1.54,6.44,0,9.76,3.13,9.76,8.28v15.85c0,1.71.3,3.43.53,5.26h-5.08Zm-.71-13.07c-.89-.29-2.54-.59-4.61-.59-3.73,0-5.62,2.42-5.62,5.26s1.24,4.97,4.26,4.97,5.97-2.31,5.97-5.44v-4.2Z"/>
        <path d="m62.48,54.6v-2.96c0-13.78,16.5-15.55,16.5-26.37,0-3.72-2.42-5.44-5.97-5.44-2.9,0-5.74.59-8.28,2.42l-1.54-4.61c3.02-1.71,6.33-2.48,10.11-2.48,6.39,0,11.53,2.72,11.53,9.76,0,13.19-16.5,16.44-16.5,24.71h16.97v4.97h-22.82Z"/>
        <path d="m95.12,54.6v-4.85h8.46v-28.2l-9.11,5.08-.53-5.44,9.87-5.38h5.56v33.94h7.98v4.85h-22.23Z"/>
        <path d="m127.58,55.25c-2.13,0-3.96-1.95-3.96-4.08s1.83-4.08,3.96-4.08,3.96,1.95,3.96,4.08-1.83,4.08-3.96,4.08Z"/>
        <path d="m158.69,44.97v9.64h-5.44v-9.64h-15.79v-4.49l13.42-24.66h7.69v24.66h4.49v4.49h-4.38Zm-5.44-23.65h-.71l-10.05,19.16h10.76v-19.16Z"/>
        <path d="m181.87,55.14c-3.55,0-5.62-1.95-6.74-4.08l-.53,3.55h-4.67V12.5h5.44v16.67c1.42-2.6,4.02-3.96,7.33-3.96,7.45,0,9.99,6.8,9.99,14.55s-3.19,15.37-10.82,15.37Zm-.83-25.72c-3.84,0-5.79,3.43-5.79,7.27v6.86c0,4.49,2.13,7.27,5.68,7.27,5.03,0,6.09-7.04,6.09-11.06,0-4.26-.59-10.35-5.97-10.35Z"/>
        <path d="m211.79,54.37c-1.6.65-2.6.77-4.91.77-4.79,0-6.56-2.42-6.56-7.86v-17.09h-4.08v-4.43h4.08v-6.62l5.44-1.95v8.57h5.62v4.43h-5.62v16.08c0,3.31.83,4.55,2.9,4.55,1.12,0,1.66,0,2.66-.41l.47,3.96Z"/>
        <path d="m229.17,17c-.95-.18-1.42-.24-2.78-.24-1.89.06-2.48,1.89-2.48,3.84v5.14h4.91v4.43h-4.91v24.42h-5.44v-24.42h-4.14v-4.43h4.14v-5.14c0-5.68,2.36-8.1,8.1-8.1,1.24,0,2.78.3,3.67.53l-1.06,3.96Z"/>
      </g>
    </g>
    <path d="m310.78,52.43c-3.84,0-5.44-.77-6.44-3.55-1.83,2.48-3.43,3.55-7.51,3.55-3.61,0-6.21-2.84-6.21-7.33,0-7.75,4.85-17.03,15.61-17.03,2.19,0,4.91.47,6.62,1.12l-3.61,16.08c-.06.18-.06.3-.06.47v.47c0,1.66,1.36,2.48,2.96,2.48,5.68,0,8.34-6.03,8.34-12.54,0-9.87-7.1-15.31-16.73-15.31-11.59,0-19.1,9.05-19.1,20.4s5.91,18.33,18.21,18.33c5.14,0,9.58-1.12,13.6-2.96l1.12,4.61c-4.38,1.89-8.1,2.9-15.73,2.9-14.19,0-22.23-8.57-22.23-22.88s9.99-24.72,25.13-24.72c12.12,0,20.75,7.75,20.75,19.63,0,8.69-4.49,16.26-14.72,16.26Zm-3.37-20.1c-.95-.24-1.89-.3-2.54-.3-6.21,0-9.22,7.57-9.22,12.71,0,2.42,1.6,3.96,3.67,3.96,4.02,0,5.44-4.61,5.91-6.98l2.19-9.4Z"/>
    <g>
      <path d="m130.11,79.33h3.39v22.77l4.91-2.5.62.96-7.22,7.77-7.19-7.77.62-.96,4.87,2.5v-22.77Z"/>
      <path d="m149.55,91.91c3.3-.34,5.62-1.64,12.53-7.13l-9.81.15.03-4.63,19.38.12.03,3.64-10.98,6.88c5.92-.65,8.7-.83,14.44-.96l-.03,4.66h-2.81c-3.15,0-4.88.22-6.94.89-2.31.77-3.92,2.53-3.92,4.32,0,1.97,2.16,3.12,6.02,3.12,1.57,0,2.72-.12,5.06-.52l-.31,5.12c-1.39.03-2.5.06-3.33.06-3.36,0-5.52-.34-7.59-1.14-3.05-1.2-4.69-3.36-4.69-6.2,0-2.01.83-3.86,2.41-5.34-4.07.62-4.78.74-9.26,1.54l-.22-4.6Z"/>
      <path d="m191.06,102.96c3.73-.65,5.18-1.11,6.69-2.16,2.1-1.39,3.21-3.89,3.21-7.22,0-2.78-.77-5.18-2.1-6.45-.96-.96-2.1-1.39-3.95-1.51-1.14,6.7-2.87,12.8-4.63,16.41-1.48,3.02-2.65,4.07-4.66,4.07-1.64,0-3.02-.71-4.38-2.22-1.91-2.1-2.84-4.72-2.84-8.02,0-4.47,1.76-8.48,4.78-10.98,2.59-2.1,6.54-3.39,10.27-3.39,3.33,0,6.54,1.02,8.52,2.75,2.38,2.1,3.67,5.43,3.67,9.5,0,4.69-1.7,8.58-4.84,10.92-2.04,1.51-3.79,2.16-7.71,2.78l-2.04-4.47Zm-6.05-13.7c-1.27,1.82-1.97,4.2-1.97,6.63,0,1.45.28,2.62.89,3.67.4.71.9,1.17,1.27,1.17.43,0,.8-.62,1.64-2.75,1.27-3.27,2.16-6.42,3.39-12.06-2.59.71-3.98,1.64-5.21,3.33Z"/>
      <path d="m220.56,87.56h-10.89v-4.38l10.89.06-.12-2.93h4.88v2.96l9.19-.09v4.41h-9.19v1.97l8.48.03v4.17h-8.52v3.33c4.54,1.39,6.39,2.16,9.75,4.01l-2.16,4.84c-3.52-2.1-5.21-2.99-7.62-3.95-.15,2.25-.46,3.27-1.26,4.13-.93.99-2.78,1.51-5.4,1.51-2.35,0-4.26-.4-5.89-1.2-1.94-.96-2.9-2.53-2.9-4.78,0-1.85.8-3.39,2.19-4.35,1.26-.86,2.99-1.3,5.43-1.3,1.05,0,1.79.06,3.15.22v-2.47h-10.37v-4.29l10.37.06v-1.97Zm-3.27,12.46c-1.94,0-3.09.56-3.09,1.45,0,1.05,1.45,1.76,3.58,1.76,1.67,0,2.38-.56,2.56-2.01.03-.09.06-.31.09-.65-1.23-.43-1.91-.56-3.15-.56Z"/>
      <path d="m250.34,87.56h-10.89v-4.38l10.89.06-.12-2.93h4.88v2.96l9.19-.09v4.41h-9.19v1.97l8.48.03v4.17h-8.52v3.33c4.54,1.39,6.39,2.16,9.75,4.01l-2.16,4.84c-3.52-2.1-5.21-2.99-7.62-3.95-.15,2.25-.46,3.27-1.26,4.13-.93.99-2.78,1.51-5.4,1.51-2.34,0-4.26-.4-5.89-1.2-1.94-.96-2.9-2.53-2.9-4.78,0-1.85.8-3.39,2.19-4.35,1.26-.86,2.99-1.3,5.43-1.3,1.05,0,1.79.06,3.15.22v-2.47h-10.37v-4.29l10.37.06v-1.97Zm-3.27,12.46c-1.94,0-3.09.56-3.09,1.45,0,1.05,1.45,1.76,3.58,1.76,1.67,0,2.38-.56,2.56-2.01.03-.09.06-.31.09-.65-1.23-.43-1.91-.56-3.15-.56Z"/>
      <path d="m272.13,100.31l-.28-19.38h5.25l-.28,19.38h-4.69Zm4.97,6.39h-5.25v-5.25h5.25v5.25Z"/>
      <path d="m295.92,79.33h3.39v22.77l4.91-2.5.62.96-7.22,7.77-7.19-7.77.62-.96,4.87,2.5v-22.77Z"/>
    </g>
    <g>
      <path d="m384.42,79.33h3.39v22.77l4.91-2.5.62.96-7.22,7.77-7.19-7.77.62-.96,4.87,2.5v-22.77Z"/>
      <path class="cls-3" d="m416.8,103.89c-1.3.99-2.72,1.36-4.97,1.36-5.62,0-8.85-3.02-8.85-8.24,0-5.49,3.18-8.64,8.67-8.64,2.13,0,3.42.34,5.15,1.45v-1.02h4.63v15.95c0,4.94-2.87,7.13-9.26,7.13-4.66,0-6.91-.86-8.73-3.39l3.42-2.38c1.39,1.51,2.47,1.85,5.68,1.85s4.26-.68,4.26-3.18v-.89Zm-9.07-7.19c0,1.42.4,2.68,1.08,3.46.68.71,1.79,1.05,3.55,1.05,1.42,0,2.38-.28,3.08-.86.9-.77,1.42-2.13,1.42-3.55,0-2.9-1.7-4.47-4.81-4.47-2.84,0-4.32,1.48-4.32,4.38Z"/>
      <path d="m446.33,82.5c.31-.96.37-1.2.71-2.53l5.52.03c-.4,1.33-.52,1.7-.8,2.47l10.98-.09v4.17l-12.9.19c-.34.68-.62,1.14-1.36,2.44,1.11-.43,1.64-.56,2.62-.56,2.53,0,3.98,1.02,4.94,3.46,3.64-1.45,4.23-1.64,7.71-2.62l1.08,4.75c-3.64.93-5.12,1.33-7.81,2.25.12,1.76.15,2.65.19,5.74h-4.72l-.09-3.89c-3.05,1.27-4.29,2.19-4.29,3.24,0,1.14,1.67,1.54,6.23,1.54,2.62,0,4.38-.15,8.11-.62l-.37,4.75c-2.65.15-3.86.19-6.11.19-9.29,0-12.34-1.39-12.34-5.65,0-1.88.89-3.52,2.68-4.91,1.45-1.14,2.62-1.79,5.55-3.05-.25-1.17-.68-1.57-1.7-1.57-2.62,0-5.55,2.41-10.8,8.79l-3.02-4.32c4.44-4.23,6.23-6.39,8.15-9.87l-6.29.09v-4.32l8.11-.09Z"/>
      <path class="cls-1" d="m484.29,105.55h-4.63v-16.75h4.63v1.57c2.16-1.51,3.61-2.01,5.71-2.01,2.44,0,4.2.93,5.09,2.65,2.25-1.88,4.2-2.65,6.6-2.65,2.68,0,4.6,1.11,5.34,3.18.34.89.46,2.16.46,4.63v9.38h-4.63v-10c0-2.44-.49-3.18-2.07-3.18-1.33,0-2.9.71-4.17,1.91-.59.56-.74,1.08-.74,2.56v8.7h-4.63v-10c0-2.31-.62-3.18-2.28-3.18-1.48,0-3.27,1.05-4.69,2.75v10.43Z"/>
      <path d="m529.68,81.36c-.56,2.53-.71,3.42-.96,5.74-.31,3.12-.52,7.07-.52,10.06s.12,5,.56,8.85l-4.81.59c-.4-3.12-.49-4.6-.49-7.99,0-7.59.4-12.5,1.39-17.74l4.84.49Zm7.34,13.54c-1.3,2.53-1.64,3.39-1.64,4.32,0,1.42,2.31,2.22,6.51,2.22,2.13,0,3.92-.19,7.77-.89l-.22,5.09c-2.78.4-4.01.49-6.54.49-3.98,0-6.36-.31-8.45-1.05-2.47-.93-3.86-2.87-3.86-5.46,0-2.07.52-3.76,1.94-6.23l4.47,1.51Zm-5.21-11.97c4.1-.46,6.14-.59,9.26-.59,2.04,0,3.8.06,7.71.28l-.19,4.72c-4.13-.25-5.99-.34-7.99-.34-2.68,0-4.63.12-8.79.56v-4.63Z"/>
      <path d="m557.77,93.15c2.71-2.38,3.3-3.7,3.3-7.53h-3.61l2.93,1.51c-1.54,3.49-2.41,4.78-4.63,6.91l-3.27-3.12c2.16-2.01,2.87-2.96,3.79-5.31h-3.18v-4.1h11.14v-1.97h5.03v1.97h11.26v4.1h-4.01c1.6,2.68,2.5,3.7,4.81,5.62l-2.78,3.64c-2.71-2.1-3.83-3.46-5.62-6.66v2.13c-.03,3.08-.68,3.76-3.83,3.92h-1.14l-.65.86h9.19v2.93c-1.2,2.38-2.1,3.49-3.89,4.88,3.05.52,4.75.68,8.82.83l-2.1,4.81c-5.43-.59-7.96-1.14-11.94-2.62-4.04,1.45-6.02,1.82-11.88,2.25l-2.13-4.26c5.37-.4,6.42-.49,9.13-.93-1.11-.77-1.27-.9-2.28-1.79-1.88.89-2.19,1.02-4.13,1.7l-2.59-3.79c3.67-1.23,5-1.85,7.22-3.52l-2.99-2.47Zm6.32,5.8c1.17.96,1.97,1.48,3.46,2.25,1.3-.77,1.97-1.3,2.87-2.25h-6.33Zm1.64-13.33c-.12,3.83-.4,5.21-1.39,7.28l2.1.62-.83-3.58,1.14.12c.37.03.71.03,1.02.03.46,0,.56-.09.56-.56v-3.92h-2.59Zm7.22,0v1.76l3.09-1.76h-3.09Z"/>
      <path d="m583.38,103.76c7.56-6.32,8.73-7.31,14.72-12.65-3.98.28-5.46.37-11.82.62l-.19-4.75c6.66-.15,9.38-.25,20.36-.68v3.7c-1.05.89-2.13,1.82-3.24,2.71l-3.79,3.15c1.67.34,2.5,1.48,2.5,3.42,0,.52-.03,1.3-.09,2.13l-.03.52c0,.96.49,1.2,2.19,1.2,2.84,0,4.6-.19,7.04-.71l-.03,4.97c-3.49.25-5.03.34-6.76.34-5.74,0-7.07-.96-7.22-5.18q-.12-2.84-.86-2.84c-.77,0-1.33.28-2.31,1.11q-.37.31-7.37,7.07l-3.08-4.13Zm7.07-24.25c6.26,1.11,8.98,1.39,14.78,1.54l-.71,4.6c-6.33-.06-9.47-.43-15.12-1.79l1.05-4.35Z"/>
      <path d="m639.33,84.97v4.63l-9.19-.03.25,6.73c3.3,1.26,5.68,2.47,9.84,4.94l-2.31,4.87c-3.27-2.31-4.91-3.33-7.56-4.75-.09,2.41-.43,3.55-1.42,4.5-1.02,1.05-2.75,1.57-5.09,1.57-3.52,0-6.63-1.02-8.18-2.68-.77-.8-1.27-2.28-1.27-3.67,0-2.22.99-4.07,2.75-5.12,1.17-.71,3.05-1.11,5.15-1.11,1.08,0,1.79.06,3.18.22l-.43-15.09,4.97.12.09,5.06,9.22-.19Zm-17.74,14.04c-1.45,0-2.68.77-2.68,1.7,0,1.36,1.73,2.28,4.32,2.28,1.6,0,2.07-.59,2.19-2.71.03-.4.03-.52.03-.52-1.94-.59-2.72-.74-3.86-.74Z"/>
      <path d="m644.73,89.6c6.42-1.7,10.61-2.38,14.9-2.38,3.18,0,5.83.83,7.56,2.34,1.54,1.36,2.31,3.3,2.31,5.8s-.8,4.91-2.22,6.82c-1.67,2.19-4.63,3.86-8.7,4.91-2.1.56-3.58.77-7,1.02l-2.65-4.66c6.54-.46,9.19-.99,11.57-2.31,2.62-1.45,4.01-3.52,4.01-5.99s-1.57-3.73-4.2-3.73c-1.97,0-5.15.49-7.84,1.2-1.67.43-3.09.93-6.66,2.25l-1.08-5.28Zm6.29-10.12c5.15,1.2,8.49,1.7,14.87,2.22l-.77,4.78c-6.26-.43-9.75-.96-15.4-2.31l1.3-4.69Z"/>
      <path d="m677.38,100.31l-.28-19.38h5.24l-.28,19.38h-4.69Zm4.97,6.39h-5.24v-5.25h5.24v5.25Z"/>
      <path d="m701.18,79.33h3.39v22.77l4.91-2.5.62.96-7.22,7.77-7.19-7.77.62-.96,4.88,2.5v-22.77Z"/>
    </g>
    <g>
      <g>
        <rect class="cls-2" x="337.63" y=".5" width="397" height="68"/>
        <path d="m734.13,1v67h-396V1h396m1-1h-398v69h398V0h0Z"/>
      </g>
      <g>
        <path d="m397.17,54.6c0,6.74-3.67,11.71-12.83,11.71-3.13,0-5.85-.36-8.51-1.3l1.12-4.67c2.13.89,4.61,1.48,7.15,1.48,5.91,0,7.63-3.19,7.63-7.21v-4.38c-1.42,2.66-3.67,4.38-7.51,4.38-7.33,0-9.82-6.8-9.82-14.84s3.61-14.55,11.06-14.55c2.9,0,5.32,1.54,6.27,3.84l.53-3.31h4.91v28.85Zm-5.32-17.86c0-4.02-1.83-7.21-5.68-7.21-4.79,0-6.09,5.97-6.09,10.23,0,5.68,1.01,10.47,5.91,10.47,3.37,0,5.85-2.9,5.85-7.21v-6.27Z"/>
        <path d="m409,55.25c-2.13,0-3.96-1.95-3.96-4.08s1.83-4.08,3.96-4.08,3.96,1.95,3.96,4.08-1.83,4.08-3.96,4.08Z"/>
        <path d="m437.85,54.07c-2.07,1.01-4.79,1.06-6.92,1.06-9.28,0-11.83-7.57-11.83-15.37s4.32-14.55,12.65-14.55c1.89,0,4.14.12,5.97.89l-1.12,4.32c-1.66-.65-3.25-.77-4.85-.77-5.56,0-6.98,5.56-6.98,10.11,0,6.09,1.66,10.88,7.57,10.88,1.42,0,3.02-.3,4.38-1.01l1.12,4.43Z"/>
        <path d="m459.14,54.6v-19.81c0-2.9-1.6-5.26-4.91-5.26-3.96,0-5.62,3.84-5.62,6.86v18.21h-5.44V12.5h5.44v17.03c1.24-2.78,4.38-4.32,7.63-4.32,5.74,0,8.34,4.2,8.34,9.22v20.16h-5.44Z"/>
        <path d="m489.12,54.6l-.53-3.84c-1.24,2.78-4.43,4.38-7.57,4.38-5.91,0-8.16-4.08-8.16-9.17v-20.22h5.44v19.75c0,2.9,1.48,5.26,4.73,5.26,3.84,0,5.44-3.84,5.44-6.86v-18.15h5.44v28.85h-4.79Z"/>
        <path d="m512.3,55.14c-9.11,0-11.71-7.33-11.71-15.37,0-7.33,3.67-14.55,11.71-14.55,8.57,0,11.71,7.04,11.71,14.55s-2.9,15.37-11.71,15.37Zm0-25.6c-5.26,0-6.03,6.33-6.03,10.23s.59,11,6.03,11,6.03-6.98,6.03-11-.77-10.23-6.03-10.23Z"/>
        <path d="m528.98,40v-4.73h14.07v4.73h-14.07Z"/>
        <path d="m565.88,54.6l-.53-3.84c-1.24,2.78-4.43,4.38-7.57,4.38-5.91,0-8.16-4.08-8.16-9.17v-20.22h5.44v19.75c0,2.9,1.48,5.26,4.73,5.26,3.84,0,5.44-3.84,5.44-6.86v-18.15h5.44v28.85h-4.79Z"/>
        <path d="m582.49,55.25c-2.13,0-3.96-1.95-3.96-4.08s1.83-4.08,3.96-4.08,3.96,1.95,3.96,4.08-1.83,4.08-3.96,4.08Z"/>
        <path d="m608.57,54.6l-.53-3.43c-1.6,2.78-4.55,3.96-7.57,3.96-5.74,0-8.34-3.25-8.34-8.69,0-6.27,4.91-9.17,11.12-9.17,1.83,0,3.49.3,4.61.47v-3.19c0-3.55-1.89-5.03-5.2-5.03-1.95,0-4.91.41-6.74,1.54l-1.12-4.32c2.66-1.24,5.74-1.54,8.57-1.54,6.45,0,9.76,3.13,9.76,8.28v15.85c0,1.71.3,3.43.53,5.26h-5.08Zm-.71-13.07c-.89-.29-2.54-.59-4.61-.59-3.72,0-5.62,2.42-5.62,5.26s1.24,4.97,4.26,4.97,5.97-2.31,5.97-5.44v-4.2Z"/>
        <path d="m638.55,54.07c-2.07,1.01-4.79,1.06-6.92,1.06-9.28,0-11.83-7.57-11.83-15.37s4.32-14.55,12.65-14.55c1.89,0,4.14.12,5.97.89l-1.12,4.32c-1.66-.65-3.25-.77-4.85-.77-5.56,0-6.98,5.56-6.98,10.11,0,6.09,1.66,10.88,7.57,10.88,1.42,0,3.02-.3,4.38-1.01l1.12,4.43Z"/>
        <path d="m648.01,55.25c-2.13,0-3.96-1.95-3.96-4.08s1.83-4.08,3.96-4.08,3.96,1.95,3.96,4.08-1.83,4.08-3.96,4.08Z"/>
        <path d="m666.7,56.55c0,6.45-1.71,9.76-7.92,9.76-.95,0-1.89-.18-2.9-.59l1.12-4.26c.47.18,1.06.35,1.77.35,2.07,0,2.48-1.71,2.48-4.55v-27.08h-3.9v-4.43h9.34v30.81Zm-3.13-36.48c-2.07,0-3.67-1.71-3.67-3.78s1.6-3.78,3.67-3.78,3.67,1.71,3.67,3.78-1.6,3.78-3.67,3.78Z"/>
        <path d="m687.16,55.14c-3.13,0-5.38-1.48-6.62-3.78v14.96h-5.44V25.75h4.79l.53,3.84c.95-2.31,3.67-4.38,7.45-4.38,7.45,0,9.99,6.8,9.99,14.55s-3.08,15.37-10.7,15.37Zm-.95-25.72c-3.84,0-5.79,3.43-5.79,7.27v6.86c0,4.49,2.13,7.33,5.68,7.33,5.03,0,6.09-6.56,6.09-11.12,0-4.26-.59-10.35-5.97-10.35Z"/>
      </g>
    </g>
    <g>
      <g>
        <rect class="cls-2" x=".5" y="131.5" width="267" height="68"/>
        <path d="m267,132v67H1v-67h266m1-1H0v69h268v-69h0Z"/>
      </g>
      <g>
        <path d="m50.18,185.6l-.53-3.43c-1.6,2.78-4.55,3.96-7.57,3.96-5.74,0-8.34-3.25-8.34-8.69,0-6.27,4.91-9.17,11.12-9.17,1.83,0,3.49.3,4.61.47v-3.19c0-3.55-1.89-5.03-5.2-5.03-1.95,0-4.91.41-6.74,1.54l-1.12-4.32c2.66-1.24,5.74-1.54,8.57-1.54,6.44,0,9.76,3.13,9.76,8.28v15.85c0,1.71.3,3.43.53,5.26h-5.08Zm-.71-13.07c-.89-.29-2.54-.59-4.61-.59-3.73,0-5.62,2.42-5.62,5.26s1.24,4.97,4.26,4.97,5.97-2.31,5.97-5.44v-4.2Z"/>
        <path d="m62.48,185.6v-2.96c0-13.78,16.5-15.55,16.5-26.37,0-3.72-2.42-5.44-5.97-5.44-2.9,0-5.74.59-8.28,2.42l-1.54-4.61c3.02-1.71,6.33-2.48,10.11-2.48,6.39,0,11.53,2.72,11.53,9.76,0,13.19-16.5,16.44-16.5,24.71h16.97v4.97h-22.82Z"/>
        <path d="m95.12,185.6v-4.85h8.46v-28.2l-9.11,5.08-.53-5.44,9.87-5.38h5.56v33.94h7.98v4.85h-22.23Z"/>
        <path d="m127.58,186.25c-2.13,0-3.96-1.95-3.96-4.08s1.83-4.08,3.96-4.08,3.96,1.95,3.96,4.08-1.83,4.08-3.96,4.08Z"/>
        <path d="m158.69,175.97v9.64h-5.44v-9.64h-15.79v-4.49l13.42-24.66h7.69v24.66h4.49v4.49h-4.38Zm-5.44-23.65h-.71l-10.05,19.16h10.76v-19.16Z"/>
        <path d="m181.87,186.14c-3.55,0-5.62-1.95-6.74-4.08l-.53,3.55h-4.67v-42.1h5.44v16.67c1.42-2.6,4.02-3.96,7.33-3.96,7.45,0,9.99,6.8,9.99,14.55s-3.19,15.37-10.82,15.37Zm-.83-25.72c-3.84,0-5.79,3.43-5.79,7.27v6.86c0,4.49,2.13,7.27,5.68,7.27,5.03,0,6.09-7.04,6.09-11.06,0-4.26-.59-10.35-5.97-10.35Z"/>
        <path d="m211.79,185.37c-1.6.65-2.6.77-4.91.77-4.79,0-6.56-2.42-6.56-7.86v-17.09h-4.08v-4.43h4.08v-6.62l5.44-1.95v8.57h5.62v4.43h-5.62v16.08c0,3.31.83,4.55,2.9,4.55,1.12,0,1.66,0,2.66-.41l.47,3.96Z"/>
        <path d="m229.17,148c-.95-.18-1.42-.24-2.78-.24-1.89.06-2.48,1.89-2.48,3.84v5.14h4.91v4.43h-4.91v24.42h-5.44v-24.42h-4.14v-4.43h4.14v-5.14c0-5.68,2.36-8.1,8.1-8.1,1.24,0,2.78.3,3.67.53l-1.06,3.96Z"/>
      </g>
    </g>
    <path d="m310.78,183.43c-3.84,0-5.44-.77-6.44-3.55-1.83,2.48-3.43,3.55-7.51,3.55-3.61,0-6.21-2.84-6.21-7.33,0-7.75,4.85-17.03,15.61-17.03,2.19,0,4.91.47,6.62,1.12l-3.61,16.08c-.06.18-.06.3-.06.47v.47c0,1.66,1.36,2.48,2.96,2.48,5.68,0,8.34-6.03,8.34-12.54,0-9.87-7.1-15.31-16.73-15.31-11.59,0-19.1,9.05-19.1,20.4s5.91,18.33,18.21,18.33c5.14,0,9.58-1.12,13.6-2.96l1.12,4.61c-4.38,1.89-8.1,2.9-15.73,2.9-14.19,0-22.23-8.57-22.23-22.88s9.99-24.72,25.13-24.72c12.12,0,20.75,7.75,20.75,19.63,0,8.69-4.49,16.26-14.72,16.26Zm-3.37-20.1c-.95-.24-1.89-.3-2.54-.3-6.21,0-9.22,7.57-9.22,12.71,0,2.42,1.6,3.96,3.67,3.96,4.02,0,5.44-4.61,5.91-6.98l2.19-9.4Z"/>
    <g>
      <g>
        <rect class="cls-2" x="337.63" y="131.5" width="397" height="68"/>
        <path d="m734.13,132v67h-396v-67h396m1-1h-398v69h398v-69h0Z"/>
      </g>
      <g>
        <path d="m400.92,185.6v-19.99c0-2.9-1.42-5.14-4.43-5.14-3.67,0-5.03,3.78-5.03,6.74v18.39h-5.44v-19.99c0-3.31-1.42-5.14-4.43-5.14-3.55,0-5.03,3.96-5.03,6.92v18.21h-5.44v-28.85h4.79l.53,3.9c1.18-2.78,4.2-4.43,7.21-4.43,4.32,0,6.33,2.07,7.27,4.43,1.12-2.54,3.84-4.43,7.63-4.43,5.38,0,7.81,4.02,7.81,9.05v20.34h-5.44Z"/>
        <path d="m418.19,186.25c-2.13,0-3.96-1.95-3.96-4.08s1.83-4.08,3.96-4.08,3.96,1.95,3.96,4.08-1.83,4.08-3.96,4.08Z"/>
        <path d="m447.05,185.07c-2.07,1.01-4.79,1.06-6.92,1.06-9.28,0-11.83-7.57-11.83-15.37s4.32-14.55,12.65-14.55c1.89,0,4.14.12,5.97.89l-1.12,4.32c-1.66-.65-3.25-.77-4.85-.77-5.56,0-6.98,5.56-6.98,10.11,0,6.09,1.66,10.88,7.57,10.88,1.42,0,3.02-.3,4.38-1.01l1.12,4.43Z"/>
        <path d="m468.34,185.6v-19.81c0-2.9-1.6-5.26-4.91-5.26-3.96,0-5.62,3.84-5.62,6.86v18.21h-5.44v-42.1h5.44v17.03c1.24-2.78,4.38-4.32,7.63-4.32,5.74,0,8.34,4.2,8.34,9.22v20.16h-5.44Z"/>
        <path d="m498.32,185.6l-.53-3.84c-1.24,2.78-4.43,4.38-7.57,4.38-5.91,0-8.16-4.08-8.16-9.17v-20.22h5.44v19.75c0,2.9,1.48,5.26,4.73,5.26,3.84,0,5.44-3.84,5.44-6.86v-18.15h5.44v28.85h-4.79Z"/>
        <path d="m521.5,186.14c-9.11,0-11.71-7.33-11.71-15.37,0-7.33,3.67-14.55,11.71-14.55,8.57,0,11.71,7.04,11.71,14.55s-2.9,15.37-11.71,15.37Zm0-25.6c-5.26,0-6.03,6.33-6.03,10.23s.59,11,6.03,11,6.03-6.98,6.03-11-.77-10.23-6.03-10.23Z"/>
        <path d="m538.17,171v-4.73h14.07v4.73h-14.07Z"/>
        <path d="m575.07,185.6l-.53-3.84c-1.24,2.78-4.43,4.38-7.57,4.38-5.91,0-8.16-4.08-8.16-9.17v-20.22h5.44v19.75c0,2.9,1.48,5.26,4.73,5.26,3.84,0,5.44-3.84,5.44-6.86v-18.15h5.44v28.85h-4.79Z"/>
        <path d="m591.69,186.25c-2.13,0-3.96-1.95-3.96-4.08s1.83-4.08,3.96-4.08,3.96,1.95,3.96,4.08-1.83,4.08-3.96,4.08Z"/>
        <path d="m617.76,185.6l-.53-3.43c-1.6,2.78-4.55,3.96-7.57,3.96-5.74,0-8.34-3.25-8.34-8.69,0-6.27,4.91-9.17,11.12-9.17,1.83,0,3.49.3,4.61.47v-3.19c0-3.55-1.89-5.03-5.2-5.03-1.95,0-4.91.41-6.74,1.54l-1.12-4.32c2.66-1.24,5.74-1.54,8.57-1.54,6.45,0,9.76,3.13,9.76,8.28v15.85c0,1.71.3,3.43.53,5.26h-5.08Zm-.71-13.07c-.89-.29-2.54-.59-4.61-.59-3.72,0-5.62,2.42-5.62,5.26s1.24,4.97,4.26,4.97,5.97-2.31,5.97-5.44v-4.2Z"/>
        <path d="m647.74,185.07c-2.07,1.01-4.79,1.06-6.92,1.06-9.28,0-11.83-7.57-11.83-15.37s4.32-14.55,12.65-14.55c1.89,0,4.14.12,5.97.89l-1.12,4.32c-1.66-.65-3.25-.77-4.85-.77-5.56,0-6.98,5.56-6.98,10.11,0,6.09,1.66,10.88,7.57,10.88,1.42,0,3.02-.3,4.38-1.01l1.12,4.43Z"/>
        <path d="m657.2,186.25c-2.13,0-3.96-1.95-3.96-4.08s1.83-4.08,3.96-4.08,3.96,1.95,3.96,4.08-1.83,4.08-3.96,4.08Z"/>
        <path d="m675.89,187.55c0,6.45-1.71,9.76-7.92,9.76-.95,0-1.89-.18-2.9-.59l1.12-4.26c.47.18,1.06.35,1.77.35,2.07,0,2.48-1.71,2.48-4.55v-27.08h-3.9v-4.43h9.34v30.81Zm-3.13-36.48c-2.07,0-3.67-1.71-3.67-3.78s1.6-3.78,3.67-3.78,3.67,1.71,3.67,3.78-1.6,3.78-3.67,3.78Z"/>
        <path d="m696.35,186.14c-3.13,0-5.38-1.48-6.62-3.78v14.96h-5.44v-40.56h4.79l.53,3.84c.95-2.31,3.67-4.38,7.45-4.38,7.45,0,9.99,6.8,9.99,14.55s-3.08,15.37-10.7,15.37Zm-.95-25.72c-3.84,0-5.79,3.43-5.79,7.27v6.86c0,4.49,2.13,7.33,5.68,7.33,5.03,0,6.09-6.56,6.09-11.12,0-4.26-.59-10.35-5.97-10.35Z"/>
      </g>
    </g>
  </g>
</svg>